@startuml
skinparam classAttributeIconSize 0
class Employee {
-firstName: String
-lastName: String
-socialSecurityNumber: String

+getFirstName(): String
+getLastName(): String
+getSocialSecurityNumber(): String
+setFirstName(firstName: String): void
+setLastName(lastName: String): void
+setSocialSecurityNumber(ssn: String): void
+toString(): String
}

class SalariedEmployee {
-weeklySalary: int

+getWeeklySalary(): int
+setWeeklySalary(weeklySalary: int): void
+toString(): String
}

class HourlyEmployee {
-wage: int
-hoursWorked: int

+getWage(): int
+getHoursWorked(): int
+setWage(wage: int): void
+setHoursWorked(hoursWorked: int): void
+toString(): String
}

class CommissionEmployee{
-commissionRate: int
-grossSales: int

+getCommissionRate(): int
+getGrossSales(): int
+setCommissionRate(commissionRate: int): void
+setGrossSales(grossSales: int): void
+toString(): String
}

class BaseEmployee {
-baseSalary: int

+getBaseSalary(): int
+setBaseSalary(baseSalary: int): void
+toString(): String
}

Employee <|-- SalariedEmployee
Employee <|-- HourlyEmployee
Employee <|-- CommissionEmployee
Employee <|-- BaseEmployee


@enduml